<svg width="1000" height="518" viewBox="0 0 1000 518" fill="none" xmlns="http://www.w3.org/2000/svg">
<path d="M80.28 453.685L116.921 373.816L0 132.565H73.6929L152.326 305.887L226.019 132.565H294.772L120.626 517.085C88.1022 517.497 66.6941 483.738 80.28 453.685Z" fill="#4267B2"/>
<path d="M428.16 124.331C449.156 124.331 467.682 128.448 484.973 135.447C502.264 142.857 517.085 152.738 529.848 165.912C542.61 178.674 552.491 193.907 559.489 211.61C566.9 228.901 570.193 248.662 570.193 269.658C570.193 290.654 566.9 310.004 559.489 327.707C552.079 345.821 542.61 361.054 529.848 373.816C517.085 386.579 502.264 396.871 484.973 404.281C467.682 411.692 449.156 415.397 428.16 415.397C407.987 415.397 389.461 411.28 371.758 404.281C354.467 396.871 339.234 386.99 326.883 373.816C314.533 361.054 304.24 345.821 297.653 327.707C290.243 309.592 286.949 290.654 286.949 269.658C286.949 248.662 290.243 229.312 297.653 211.61C305.064 194.319 314.533 179.086 326.883 165.912C339.234 153.149 354.467 142.857 371.758 135.447C389.461 128.036 407.987 124.331 428.16 124.331ZM428.16 356.525C438.452 356.525 447.921 354.878 456.978 350.761C466.035 346.645 474.269 341.293 481.68 333.882C489.09 326.472 494.442 317.414 498.559 306.299C502.676 295.595 504.734 282.832 504.734 268.835C504.734 254.837 502.676 241.663 498.559 231.371C494.442 220.667 489.09 211.61 481.68 204.199C474.269 196.789 466.447 191.437 456.978 187.731C447.921 184.438 438.452 181.968 428.16 181.968C417.867 181.968 408.398 183.615 399.341 187.731C390.284 191.025 382.05 196.789 375.051 204.199C368.464 211.61 362.701 220.667 358.172 231.371C353.643 242.075 351.585 254.426 351.585 268.835C351.585 282.832 353.643 296.006 358.172 306.299C362.701 317.003 368.464 326.472 375.051 333.882C381.638 341.293 390.284 346.645 399.341 350.761C408.398 354.467 417.867 356.525 428.16 356.525Z" fill="#4267B2"/>
<path d="M610.951 406.752V52.6966C610.951 23.4665 634.417 0 663.648 0H675.998V355.702C675.998 383.697 652.944 406.752 624.949 406.752H610.951Z" fill="#4267B2"/>
<path d="M857.966 124.331C878.962 124.331 897.489 128.448 914.78 135.447C932.071 142.857 946.892 152.738 959.654 165.912C972.417 178.674 982.297 193.907 989.296 211.61C996.707 228.901 1000 248.662 1000 269.658C1000 290.654 996.707 310.004 989.296 327.707C981.886 345.821 972.417 361.054 959.654 373.816C946.892 386.579 932.071 396.871 914.78 404.281C897.489 411.692 878.962 415.397 857.966 415.397C837.793 415.397 819.267 411.28 801.564 404.281C784.273 396.871 769.041 386.99 756.69 373.816C744.339 361.054 734.047 345.821 727.46 327.707C720.049 309.592 716.756 290.654 716.756 269.658C716.756 248.662 720.049 229.312 727.46 211.61C734.87 194.319 744.339 179.086 756.69 165.912C769.041 153.149 784.273 142.857 801.564 135.447C819.267 128.036 837.793 124.331 857.966 124.331ZM857.966 356.525C868.258 356.525 877.727 354.878 886.785 350.761C895.842 346.645 904.076 341.293 911.486 333.882C918.897 326.472 924.249 317.414 928.366 306.299C932.482 295.595 934.541 282.832 934.541 268.835C934.541 254.837 932.482 241.663 928.366 231.371C924.249 220.667 918.897 211.61 911.486 204.199C904.076 196.789 896.254 191.437 886.785 187.731C877.727 184.438 868.258 181.968 857.966 181.968C847.674 181.968 838.205 183.615 829.148 187.731C820.091 191.025 811.857 196.789 804.858 204.199C797.859 211.61 792.507 220.667 787.979 231.371C783.45 242.075 781.392 254.426 781.392 268.835C781.392 282.832 783.45 296.006 787.979 306.299C792.507 317.003 798.271 326.472 804.858 333.882C811.445 341.293 820.091 346.645 829.148 350.761C838.205 354.467 848.086 356.525 857.966 356.525Z" fill="#4267B2"/>
</svg>
